# xmcd
#
# Track frame offsets:
#	150
#	20747
#	34455
#	51862
#	66547
#	78882
#	89002
#	102054
#	115332
#	126197
#	141430
#	152835
#	174442
#	186040
#
# Disc length: 2729 seconds
#
# Revision: 1
# Processed by: cddbd v1.4PL0 Copyright (c) Steve Scherf et al.
# Submitted via: audiograbber 1.81.03
#
DISCID=c80aa70e
DTITLE=Don Baker - Just Don Baker
DYEAR=1998
DGENRE=Blues
TTITLE0=Never Let You Down
TTITLE1=Creole Belle
TTITLE2=Hey Hey Baby
TTITLE3=Drivin'
TTITLE4=Hesitation Blues
TTITLE5=Finnerty's Blues
TTITLE6=Glory of Love
TTITLE7=Catch The Wind
TTITLE8=Worried Blues
TTITLE9=Jackin' It In
TTITLE10=Dallas Rag
TTITLE11=Childhood Blues
TTITLE12=Spoonful
TTITLE13=This Train
EXTD=
EXTT0=
EXTT1=
EXTT2=
EXTT3=
EXTT4=
EXTT5=
EXTT6=
EXTT7=
EXTT8=
EXTT9=
EXTT10=
EXTT11=
EXTT12=
EXTT13=
PLAYORDER=
